<svg version="1.1" viewBox="0.0 0.0 932.1811023622047 201.85564304461943" fill="none" stroke="none" stroke-linecap="square" stroke-miterlimit="10" xmlns:xlink="http://www.w3.org/1999/xlink" xmlns="http://www.w3.org/2000/svg"><clipPath id="p.0"><path d="m0 0l932.1811 0l0 201.85564l-932.1811 0l0 -201.85564z" clip-rule="nonzero"/></clipPath><g clip-path="url(#p.0)"><path fill="#000000" fill-opacity="0.0" d="m0 0l932.1811 0l0 201.85564l-932.1811 0z" fill-rule="evenodd"/><path fill="#000000" fill-opacity="0.0" d="m12.540683 9.778215l896.1575 0l0 181.76378l-896.1575 0z" fill-rule="evenodd"/><path fill="#ffffff" d="m93.79068 131.7501q0 7.578125 -2.796875 13.5q-2.796875 5.921875 -7.75 10.046875q-4.953125 4.125 -11.671875 6.203125q-6.703125 2.078125 -14.453121 2.078125q-5.40625 0 -10.03125 -0.921875q-4.625 -0.90625 -8.25 -2.234375q-3.625 -1.34375 -6.09375 -2.75q-2.453127 -1.421875 -3.421877 -2.421875q-0.953125 -1.0 -1.40625 -2.53125q-0.453125 -1.546875 -0.453125 -4.140625q0 -1.828125 0.15625 -3.03125q0.171875 -1.21875 0.5 -1.96875q0.34375 -0.75 0.84375 -1.03125q0.5 -0.296875 1.15625 -0.296875q1.171875 0 3.296877 1.421875q2.125 1.40625 5.453125 3.078125q3.34375 1.671875 8.046875 3.125q4.703125 1.453125 10.875 1.453125q4.671875 0 8.531246 -1.25q3.875 -1.25 6.671875 -3.53125q2.796875 -2.296875 4.296875 -5.625q1.5 -3.34375 1.5 -7.59375q0 -4.578125 -2.09375 -7.828125q-2.078125 -3.25 -5.5 -5.703125q-3.40625 -2.453125 -7.781246 -4.5q-4.375 -2.046875 -8.96875 -4.171875q-4.578125 -2.125 -8.90625 -4.703125q-4.328125 -2.578125 -7.75 -6.078125q-3.421875 -3.5 -5.546875 -8.203125q-2.125002 -4.71875 -2.125002 -11.296875q0 -6.75 2.453127 -12.046875q2.46875 -5.296875 6.84375 -8.875q4.375 -3.578125 10.40625 -5.453125q6.046875 -1.875 13.046875 -1.875q3.5781212 0 7.203121 0.625q3.625 0.625 6.828125 1.671875q3.21875 1.03125 5.71875 2.328125q2.5 1.28125 3.28125 2.078125q0.796875 0.796875 1.046875 1.25q0.25 0.453125 0.421875 1.171875q0.171875 0.703125 0.25 1.703125q0.078125 1.0 0.078125 2.578125q0 1.5 -0.125 2.671875q-0.125 1.171875 -0.375 1.96875q-0.25 0.78125 -0.703125 1.15625q-0.453125 0.375 -1.046875 0.375q-0.90625 0 -2.875 -1.15625q-1.953125 -1.171875 -4.796875 -2.625q-2.828125 -1.46875 -6.703125 -2.671875q-3.875 -1.21875 -8.703121 -1.21875q-4.5 0 -7.828125 1.21875q-3.328125 1.203125 -5.5 3.203125q-2.171875 2.0 -3.25 4.75q-1.078125 2.75 -1.078125 5.828125q0 4.5 2.078125 7.75q2.078125 3.25 5.53125 5.75q3.46875 2.5 7.875 4.59375q4.421871 2.078125 8.999996 4.203125q4.59375 2.125 9.0 4.671875q4.421875 2.53125 7.875 6.0q3.46875 3.453125 5.59375 8.15625q2.125 4.703125 2.125 11.125zm83.16188 28.171875q0 0.65625 -0.296875 1.125q-0.296875 0.453125 -1.046875 0.796875q-0.75 0.328125 -1.953125 0.484375q-1.203125 0.171875 -2.953125 0.171875q-1.921875 0 -3.140625 -0.171875q-1.203125 -0.15625 -1.90625 -0.484375q-0.703125 -0.34375 -0.953125 -0.796875q-0.25 -0.46875 -0.25 -1.125l0 -9.921875q-6.421875 7.078125 -12.671875 10.328125q-6.25 3.25 -12.65625 3.25q-7.5 0 -12.625 -2.5q-5.125 -2.5 -8.296875 -6.78125q-3.171875 -4.296875 -4.546875 -10.0q-1.375 -5.71875 -1.375 -13.875l0 -45.5q0 -0.671875 0.296875 -1.125q0.296875 -0.453125 1.125 -0.828125q0.828125 -0.375 2.15625 -0.5q1.34375 -0.125 3.34375 -0.125q2.0 0 3.328125 0.125q1.34375 0.125 2.125 0.5q0.796875 0.375 1.125 0.828125q0.34375 0.453125 0.34375 1.125l0 43.65625q0 6.59375 0.953125 10.546875q0.953125 3.953125 2.90625 6.75q1.96875 2.796875 4.96875 4.34375q3.0 1.53125 7.0 1.53125q5.15625 0 10.28125 -3.65625q5.125 -3.671875 10.875 -10.765625l0 -52.40625q0 -0.671875 0.296875 -1.125q0.296875 -0.453125 1.125 -0.828125q0.828125 -0.375 2.125 -0.5q1.296875 -0.125 3.375 -0.125q2.0 0 3.328125 0.125q1.34375 0.125 2.09375 0.5q0.75 0.375 1.125 0.828125q0.375 0.453125 0.375 1.125l0 75.0zm89.989334 0q0 0.65625 -0.34375 1.125q-0.328125 0.453125 -1.078125 0.796875q-0.75 0.328125 -2.078125 0.484375q-1.328125 0.171875 -3.328125 0.171875q-2.09375 0 -3.421875 -0.171875q-1.3281403 -0.15625 -2.0781403 -0.484375q-0.75 -0.34375 -1.09375 -0.796875q-0.328125 -0.46875 -0.328125 -1.125l0 -43.921875q0 -6.40625 -1.0 -10.328125q-1.0 -3.921875 -2.921875 -6.75q-1.90625 -2.828125 -4.953125 -4.328125q-3.046875 -1.5 -7.046875 -1.5q-5.15625 0 -10.328125 3.671875q-5.15625 3.65625 -10.828125 10.734375l0 52.421875q0 0.65625 -0.34375 1.125q-0.328125 0.453125 -1.078125 0.796875q-0.75 0.328125 -2.078125 0.484375q-1.328125 0.171875 -3.421875 0.171875q-2.0 0 -3.328125 -0.171875q-1.328125 -0.15625 -2.125 -0.484375q-0.796875 -0.34375 -1.09375 -0.796875q-0.28125 -0.46875 -0.28125 -1.125l0 -75.0q0 -0.671875 0.25 -1.125q0.25 -0.453125 1.0 -0.828125q0.75 -0.375 1.90625 -0.5q1.171875 -0.125 3.09375 -0.125q1.828125 0 3.03125 0.125q1.21875 0.125 1.875 0.5q0.671875 0.375 0.96875 0.828125q0.296875 0.453125 0.296875 1.125l0 9.921875q6.328125 -7.09375 12.609375 -10.375q6.296875 -3.296875 12.71875 -3.296875q7.5 0 12.625 2.546875q5.1250153 2.53125 8.281265 6.78125q3.171875 4.25 4.546875 9.96875q1.375 5.703125 1.375 13.703125l0 45.75zm136.33304 0q0 0.65625 -0.34375 1.125q-0.328125 0.453125 -1.078125 0.796875q-0.75 0.328125 -2.09375 0.484375q-1.328125 0.171875 -3.328125 0.171875q-2.078125 0 -3.421875 -0.171875q-1.328125 -0.15625 -2.125 -0.484375q-0.78125 -0.34375 -1.125 -0.796875q-0.328125 -0.46875 -0.328125 -1.125l0 -45.578125q0 -4.75 -0.828125 -8.671875q-0.828125 -3.921875 -2.671875 -6.75q-1.828125 -2.828125 -4.671875 -4.328125q-2.828125 -1.5 -6.65625 -1.5q-4.75 0 -9.546875 3.671875q-4.78125 3.65625 -10.53125 10.734375l0 52.421875q0 0.65625 -0.34375 1.125q-0.328125 0.453125 -1.125 0.796875q-0.78125 0.328125 -2.125 0.484375q-1.328125 0.171875 -3.328125 0.171875q-1.921875 0 -3.296875 -0.171875q-1.375 -0.15625 -2.171875 -0.484375q-0.78125 -0.34375 -1.078125 -0.796875q-0.28125 -0.46875 -0.28125 -1.125l0 -45.578125q0 -4.75 -0.921875 -8.671875q-0.921875 -3.921875 -2.75 -6.75q-1.828125 -2.828125 -4.625 -4.328125q-2.796875 -1.5 -6.625 -1.5q-4.75 0 -9.578125 3.671875q-4.828125 3.65625 -10.5 10.734375l0 52.421875q0 0.65625 -0.34375 1.125q-0.328125 0.453125 -1.078125 0.796875q-0.75 0.328125 -2.078125 0.484375q-1.328125 0.171875 -3.421875 0.171875q-2.0 0 -3.328125 -0.171875q-1.328125 -0.15625 -2.125 -0.484375q-0.796875 -0.34375 -1.09375 -0.796875q-0.28125 -0.46875 -0.28125 -1.125l0 -75.0q0 -0.671875 0.25 -1.125q0.25 -0.453125 1.0 -0.828125q0.75 -0.375 1.90625 -0.5q1.171875 -0.125 3.09375 -0.125q1.828125 0 3.03125 0.125q1.21875 0.125 1.875 0.5q0.671875 0.375 0.96875 0.828125q0.296875 0.453125 0.296875 1.125l0 9.921875q6.328125 -7.09375 12.28125 -10.375q5.953125 -3.296875 12.046875 -3.296875q4.65625 0 8.359375 1.09375q3.71875 1.078125 6.546875 3.03125q2.84375 1.953125 4.84375 4.671875q2.0 2.703125 3.328125 6.03125q3.75 -4.078125 7.125 -6.90625q3.375 -2.84375 6.5 -4.59375q3.125 -1.75 6.078125 -2.53125q2.96875 -0.796875 5.96875 -0.796875q7.25 0 12.15625 2.546875q4.921875 2.53125 7.953125 6.78125q3.046875 4.25 4.34375 9.96875q1.296875 5.703125 1.296875 12.03125l0 47.421875zm81.57501 0.078125q0 1.0 -0.671875 1.5q-0.671875 0.5 -1.84375 0.75q-1.15625 0.25 -3.40625 0.25q-2.171875 0 -3.46875 -0.25q-1.28125 -0.25 -1.875 -0.75q-0.578125 -0.5 -0.578125 -1.5l0 -7.5q-4.90625 5.25 -10.953125 8.171875q-6.03125 2.90625 -12.78125 2.90625q-5.921875 0 -10.71875 -1.546875q-4.78125 -1.53125 -8.15625 -4.4375q-3.375 -2.921875 -5.25 -7.171875q-1.875 -4.25 -1.875 -9.671875q0 -6.328125 2.578125 -11.0q2.578125 -4.671875 7.40625 -7.75q4.84375 -3.078125 11.84375 -4.609375q7.0 -1.546875 15.75 -1.546875l10.328125 0l0 -5.84375q0 -4.328125 -0.921875 -7.65625q-0.90625 -3.34375 -2.953125 -5.546875q-2.046875 -2.203125 -5.296875 -3.328125q-3.25 -1.125 -7.984375 -1.125q-5.09375 0 -9.140625 1.203125q-4.03125 1.203125 -7.078125 2.671875q-3.03125 1.453125 -5.078125 2.671875q-2.046875 1.203125 -3.046875 1.203125q-0.65625 0 -1.15625 -0.328125q-0.5 -0.34375 -0.875 -1.0q-0.375 -0.671875 -0.546875 -1.71875q-0.171875 -1.046875 -0.171875 -2.296875q0 -2.078125 0.296875 -3.28125q0.296875 -1.21875 1.421875 -2.296875q1.125 -1.078125 3.875 -2.53125q2.75 -1.46875 6.328125 -2.671875q3.578125 -1.21875 7.828125 -2.0q4.25 -0.796875 8.59375 -0.796875q8.078125 0 13.734375 1.84375q5.671875 1.828125 9.171875 5.375q3.5 3.53125 5.078125 8.78125q1.59375 5.25 1.59375 12.25l0 50.578125zm-13.671875 -34.25l-11.75 0q-5.65625 0 -9.828125 0.96875q-4.171875 0.953125 -6.921875 2.828125q-2.75 1.875 -4.046875 4.5q-1.28125 2.625 -1.28125 6.03125q0 5.84375 3.703125 9.296875q3.71875 3.453125 10.375 3.453125q5.421875 0 10.046875 -2.75q4.625 -2.75 9.703125 -8.40625l0 -15.921875zm82.745026 -35.90625q0 1.828125 -0.09375 3.078125q-0.078125 1.25 -0.328125 1.96875q-0.25 0.703125 -0.625 1.078125q-0.375 0.375 -1.03125 0.375q-0.671875 0 -1.640625 -0.375q-0.953125 -0.375 -2.15625 -0.75q-1.203125 -0.375 -2.703125 -0.703125q-1.5 -0.34375 -3.25 -0.34375q-2.078125 0 -4.078125 0.84375q-2.0 0.828125 -4.21875 2.75q-2.203125 1.90625 -4.625 5.078125q-2.40625 3.15625 -5.328125 7.75l0 49.328125q0 0.65625 -0.34375 1.125q-0.328125 0.453125 -1.078125 0.796875q-0.75 0.328125 -2.078125 0.484375q-1.328125 0.171875 -3.421875 0.171875q-2.0 0 -3.328125 -0.171875q-1.328125 -0.15625 -2.1250305 -0.484375q-0.796875 -0.34375 -1.09375 -0.796875q-0.28125 -0.46875 -0.28125 -1.125l0 -75.0q0 -0.671875 0.25 -1.125q0.25 -0.453125 1.0 -0.828125q0.7500305 -0.375 1.9062805 -0.5q1.171875 -0.125 3.09375 -0.125q1.828125 0 3.03125 0.125q1.21875 0.125 1.875 0.5q0.671875 0.375 0.96875 0.828125q0.296875 0.453125 0.296875 1.125l0 10.921875q3.078125 -4.5 5.78125 -7.328125q2.71875 -2.84375 5.125 -4.46875q2.421875 -1.625 4.796875 -2.25q2.375 -0.625 4.78125 -0.625q1.09375 0 2.46875 0.125q1.375 0.125 2.875 0.46875q1.5 0.328125 2.703125 0.75q1.203125 0.40625 1.703125 0.828125q0.5 0.40625 0.671875 0.78125q0.171875 0.375 0.296875 0.96875q0.125 0.578125 0.15625 1.703125q0.046875 1.125 0.046875 3.046875zm77.2464 69.984375q0 0.671875 -0.34375 1.171875q-0.328125 0.5 -1.125 0.84375q-0.78125 0.328125 -2.203125 0.484375q-1.40625 0.171875 -3.578125 0.171875q-2.25 0 -3.71875 -0.125q-1.453125 -0.125 -2.453125 -0.40625q-1.0 -0.296875 -1.625 -0.84375q-0.625 -0.546875 -1.125 -1.296875l-31.65625 -41.484375l0 41.578125q0 0.65625 -0.34375 1.125q-0.328125 0.453125 -1.078125 0.796875q-0.75 0.328125 -2.078125 0.484375q-1.328125 0.171875 -3.421875 0.171875q-2.0 0 -3.328125 -0.171875q-1.328125 -0.15625 -2.125 -0.484375q-0.796875 -0.34375 -1.09375 -0.796875q-0.28125 -0.46875 -0.28125 -1.125l0 -111.328125q0 -0.671875 0.28125 -1.171875q0.296875 -0.5 1.09375 -0.828125q0.796875 -0.34375 2.125 -0.5q1.328125 -0.171875 3.328125 -0.171875q2.09375 0 3.421875 0.171875q1.328125 0.15625 2.078125 0.5q0.75 0.328125 1.078125 0.828125q0.34375 0.5 0.34375 1.171875l0 67.828125l28.328125 -31.171875q0.671875 -0.828125 1.421875 -1.359375q0.75 -0.546875 1.78125 -0.921875q1.046875 -0.375 2.453125 -0.5q1.421875 -0.125 3.421875 -0.125q2.09375 0 3.5 0.125q1.421875 0.125 2.296875 0.421875q0.875 0.28125 1.25 0.75q0.375 0.453125 0.375 1.203125q0 1.0 -0.546875 2.0q-0.53125 1.0 -1.78125 2.328125l-27.171875 27.171875l30.5 39.578125q1.078125 1.40625 1.53125 2.28125q0.46875 0.875 0.46875 1.625zm80.00049 -40.65625q0 3.25 -1.625 4.625q-1.625 1.375 -3.71875 1.375l-49.15625 0q0 6.25 1.25 11.25q1.25 5.0 4.15625 8.578125q2.921875 3.578125 7.59375 5.5q4.671875 1.921875 11.40625 1.921875q5.34375 0 9.5 -0.875q4.171875 -0.875 7.203125 -1.953125q3.046875 -1.09375 5.0 -1.96875q1.96875 -0.875 2.96875 -0.875q0.578125 0 1.03125 0.296875q0.46875 0.28125 0.71875 0.875q0.25 0.578125 0.375 1.625q0.125 1.03125 0.125 2.53125q0 1.09375 -0.09375 1.890625q-0.078125 0.78125 -0.203125 1.40625q-0.125 0.625 -0.421875 1.125q-0.28125 0.5 -0.75 0.96875q-0.453125 0.453125 -2.703125 1.5q-2.25 1.03125 -5.828125 2.03125q-3.578125 1.0 -8.296875 1.78125q-4.703125 0.796875 -10.03125 0.796875q-9.25 0 -16.21875 -2.578125q-6.953125 -2.578125 -11.703125 -7.65625q-4.75 -5.09375 -7.171875 -12.75q-2.40625 -7.671875 -2.40625 -17.84375q0 -9.65625 2.5 -17.359375q2.5 -7.71875 7.203125 -13.09375q4.71875 -5.375 11.375 -8.25q6.671875 -2.875 14.921875 -2.875q8.828125 0 15.03125 2.84375q6.21875 2.828125 10.21875 7.625q4.0 4.78125 5.875 11.25q1.875 6.453125 1.875 13.78125l0 2.5zm-13.84375 -4.078125q0.25 -10.84375 -4.796875 -17.0q-5.03125 -6.171875 -14.953125 -6.171875q-5.078125 0 -8.90625 1.921875q-3.828125 1.90625 -6.421875 5.078125q-2.578125 3.171875 -4.0 7.375q-1.40625 4.203125 -1.578125 8.796875l40.65625 0zm73.75525 39.328125q0 2.40625 -0.34375 3.828125q-0.328125 1.421875 -1.0 2.09375q-0.65625 0.65625 -2.0 1.25q-1.328125 0.578125 -3.046875 0.953125q-1.703125 0.375 -3.625 0.625q-1.90625 0.25 -3.8125 0.25q-5.84375 0 -10.015625 -1.546875q-4.15625 -1.546875 -6.828125 -4.671875q-2.65625 -3.125 -3.875 -7.90625q-1.203125 -4.796875 -1.203125 -11.296875l0 -43.828125l-10.5 0q-1.25 0 -2.0 -1.328125q-0.75 -1.34375 -0.75 -4.34375q0 -1.578125 0.203125 -2.65625q0.21875 -1.09375 0.546875 -1.796875q0.328125 -0.703125 0.875 -1.0q0.546875 -0.296875 1.203125 -0.296875l10.421875 0l0 -17.828125q0 -0.578125 0.28125 -1.078125q0.296875 -0.5 1.09375 -0.875q0.796875 -0.375 2.125 -0.546875q1.328125 -0.171875 3.328125 -0.171875q2.09375 0 3.421875 0.171875q1.328125 0.171875 2.078125 0.546875q0.75 0.375 1.078125 0.875q0.34375 0.5 0.34375 1.078125l0 17.828125l19.25 0q0.65625 0 1.15625 0.296875q0.5 0.296875 0.875 1.0q0.375 0.703125 0.546875 1.796875q0.171875 1.078125 0.171875 2.65625q0 3.0 -0.75 4.34375q-0.75 1.328125 -2.0 1.328125l-19.25 0l0 41.828125q0 7.75 2.28125 11.71875q2.296875 3.953125 8.21875 3.953125q1.921875 0 3.40625 -0.375q1.5 -0.375 2.671875 -0.796875q1.171875 -0.421875 2.0 -0.796875q0.828125 -0.375 1.5 -0.375q0.421875 0 0.796875 0.21875q0.375 0.203125 0.578125 0.796875q0.203125 0.578125 0.375 1.578125q0.171875 1.0 0.171875 2.5z" fill-rule="nonzero"/><path fill="#000000" fill-opacity="0.0" d="m904.08923 68.472435l-23.532532 8.422958l0 -16.845913zm-17.084106 -41.503498l-10.71936 22.705982l-11.835022 -11.911697zm-41.230835 -17.189415l8.368713 23.685028l-16.737427 0zm-41.236267 17.189415l22.559814 10.794285l-11.835022 11.911697zm-17.078735 41.503498l23.532532 -8.422955l0 16.845913zm17.078735 41.498062l10.7247925 -22.700546l11.835022 11.911697zm41.236267 17.194847l-8.368713 -23.685028l16.737427 0zm41.230835 -17.194847l-22.554382 -10.788849l11.835022 -11.911697zm-70.388306 -41.498062l0 0c0 -16.2076 13.054199 -29.346458 29.15747 -29.346458c16.10321 0 29.15747 13.138859 29.15747 29.346458c0 16.207603 -13.05426 29.346458 -29.15747 29.346458c-16.103271 0 -29.15747 -13.138855 -29.15747 -29.346458z" fill-rule="evenodd"/><path stroke="#fdbb30" stroke-width="16.0" stroke-linejoin="round" stroke-linecap="butt" d="m904.08923 68.472435l-23.532532 8.422958l0 -16.845913zm-17.084106 -41.503498l-10.71936 22.705982l-11.835022 -11.911697zm-41.230835 -17.189415l8.368713 23.685028l-16.737427 0zm-41.236267 17.189415l22.559814 10.794285l-11.835022 11.911697zm-17.078735 41.503498l23.532532 -8.422955l0 16.845913zm17.078735 41.498062l10.7247925 -22.700546l11.835022 11.911697zm41.236267 17.194847l-8.368713 -23.685028l16.737427 0zm41.230835 -17.194847l-22.554382 -10.788849l11.835022 -11.911697zm-70.388306 -41.498062l0 0c0 -16.2076 13.054199 -29.346458 29.15747 -29.346458c16.10321 0 29.15747 13.138859 29.15747 29.346458c0 16.207603 -13.05426 29.346458 -29.15747 29.346458c-16.103271 0 -29.15747 -13.138855 -29.15747 -29.346458z" fill-rule="evenodd"/><path fill="#000000" fill-opacity="0.0" d="m735.8688 91.055115l219.81104 0l0 97.03937l-219.81104 0z" fill-rule="evenodd"/><path fill="#195a99" d="m762.97815 170.46417q0 3.515625 -1.171875 4.671875q-1.15625 1.15625 -4.21875 1.15625q-2.96875 0 -4.109375 -1.125q-1.140625 -1.140625 -1.140625 -4.5625q0 -3.5 1.15625 -4.65625q1.171875 -1.171875 4.234375 -1.171875q2.96875 0 4.109375 1.140625q1.140625 1.125 1.140625 4.546875z" fill-rule="nonzero"/><path fill="#195a99" d="m805.3388 168.7923q0 0.734375 -0.046875 1.28125q-0.03125 0.546875 -0.140625 0.921875q-0.109375 0.359375 -0.265625 0.65625q-0.15625 0.28125 -0.703125 0.828125q-0.546875 0.546875 -1.859375 1.359375q-1.296875 0.796875 -2.9375 1.4375q-1.640625 0.625 -3.5625 1.015625q-1.90625 0.390625 -3.953125 0.390625q-4.234375 0 -7.515625 -1.390625q-3.265625 -1.40625 -5.46875 -4.078125q-2.203125 -2.6875 -3.359375 -6.59375q-1.15625 -3.90625 -1.15625 -9.0q0 -5.8125 1.421875 -9.96875q1.421875 -4.171875 3.875 -6.828125q2.46875 -2.65625 5.796875 -3.9375q3.34375 -1.296875 7.234375 -1.296875q1.875 0 3.640625 0.359375q1.765625 0.34375 3.25 0.90625q1.484375 0.5625 2.640625 1.3125q1.15625 0.734375 1.671875 1.265625q0.53125 0.515625 0.71875 0.828125q0.203125 0.296875 0.328125 0.71875q0.125 0.40625 0.171875 0.9375q0.046875 0.515625 0.046875 1.3125q0 1.6875 -0.390625 2.375q-0.390625 0.671875 -0.953125 0.671875q-0.65625 0 -1.515625 -0.71875q-0.84375 -0.71875 -2.15625 -1.59375q-1.3125 -0.875 -3.171875 -1.59375q-1.84375 -0.71875 -4.375 -0.71875q-5.1875 0 -7.96875 4.0q-2.765625 3.984375 -2.765625 11.578125q0 3.78125 0.71875 6.640625q0.71875 2.859375 2.109375 4.78125q1.40625 1.921875 3.4375 2.859375q2.03125 0.9375 4.640625 0.9375q2.484375 0 4.359375 -0.78125q1.875 -0.796875 3.25 -1.734375q1.375 -0.9375 2.3125 -1.6875q0.9375 -0.765625 1.46875 -0.765625q0.296875 0 0.515625 0.171875q0.21875 0.171875 0.375 0.59375q0.15625 0.40625 0.21875 1.046875q0.0625 0.625 0.0625 1.5zm46.069397 -14.09375q0 4.796875 -1.265625 8.84375q-1.265625 4.03125 -3.78125 6.953125q-2.5 2.921875 -6.28125 4.5625q-3.765625 1.625 -8.75 1.625q-4.828125 0 -8.4375 -1.4375q-3.59375 -1.4375 -6.0 -4.1875q-2.390625 -2.75 -3.578125 -6.671875q-1.171875 -3.921875 -1.171875 -8.90625q0 -4.796875 1.234375 -8.828125q1.25 -4.03125 3.75 -6.953125q2.515625 -2.921875 6.265625 -4.53125q3.765625 -1.625 8.78125 -1.625q4.828125 0 8.421875 1.4375q3.609375 1.4375 6.0 4.1875q2.40625 2.75 3.609375 6.6875q1.203125 3.921875 1.203125 8.84375zm-7.59375 0.484375q0 -3.1875 -0.59375 -6.015625q-0.59375 -2.84375 -1.953125 -4.96875q-1.34375 -2.140625 -3.65625 -3.390625q-2.296875 -1.25 -5.75 -1.25q-3.1875 0 -5.484375 1.140625q-2.28125 1.140625 -3.765625 3.21875q-1.484375 2.0625 -2.203125 4.90625q-0.71875 2.828125 -0.71875 6.1875q0 3.21875 0.59375 6.0625q0.59375 2.828125 1.953125 4.953125q1.375 2.109375 3.6875 3.359375q2.3125 1.234375 5.765625 1.234375q3.140625 0 5.453125 -1.125q2.3125 -1.140625 3.796875 -3.1875q1.484375 -2.0625 2.171875 -4.890625q0.703125 -2.828125 0.703125 -6.234375zm76.41913 19.578125q0 0.359375 -0.1875 0.59375q-0.171875 0.234375 -0.5625 0.421875q-0.390625 0.171875 -1.09375 0.25q-0.6875 0.09375 -1.734375 0.09375q-1.09375 0 -1.796875 -0.09375q-0.6875 -0.078125 -1.109375 -0.25q-0.40625 -0.1875 -0.59375 -0.421875q-0.171875 -0.234375 -0.171875 -0.59375l0 -23.859375q0 -2.484375 -0.4375 -4.53125q-0.421875 -2.046875 -1.390625 -3.53125q-0.953125 -1.484375 -2.4375 -2.265625q-1.484375 -0.796875 -3.5 -0.796875q-2.484375 0 -5.0 1.921875q-2.5 1.921875 -5.5 5.625l0 27.4375q0 0.359375 -0.1875 0.59375q-0.171875 0.234375 -0.59375 0.421875q-0.40625 0.171875 -1.109375 0.25q-0.6875 0.09375 -1.734375 0.09375q-1.0 0 -1.71875 -0.09375q-0.71875 -0.078125 -1.140625 -0.25q-0.40625 -0.1875 -0.5625 -0.421875q-0.15625 -0.234375 -0.15625 -0.59375l0 -23.859375q0 -2.484375 -0.484375 -4.53125q-0.46875 -2.046875 -1.4375 -3.53125q-0.953125 -1.484375 -2.421875 -2.265625q-1.453125 -0.796875 -3.46875 -0.796875q-2.484375 0 -5.015625 1.921875q-2.515625 1.921875 -5.484375 5.625l0 27.4375q0 0.359375 -0.1875 0.59375q-0.171875 0.234375 -0.5625 0.421875q-0.390625 0.171875 -1.09375 0.25q-0.6875 0.09375 -1.78125 0.09375q-1.046875 0 -1.75 -0.09375q-0.6875 -0.078125 -1.109375 -0.25q-0.40625 -0.1875 -0.5625 -0.421875q-0.15625 -0.234375 -0.15625 -0.59375l0 -39.25q0 -0.34375 0.125 -0.578125q0.140625 -0.25 0.53125 -0.4375q0.390625 -0.203125 1.0 -0.265625q0.609375 -0.078125 1.609375 -0.078125q0.96875 0 1.59375 0.078125q0.640625 0.0625 0.984375 0.265625q0.34375 0.1875 0.5 0.4375q0.15625 0.234375 0.15625 0.578125l0 5.1875q3.3125 -3.703125 6.421875 -5.421875q3.125 -1.734375 6.3125 -1.734375q2.4375 0 4.375 0.578125q1.953125 0.5625 3.4375 1.59375q1.484375 1.015625 2.53125 2.4375q1.046875 1.40625 1.734375 3.15625q1.96875 -2.140625 3.734375 -3.609375q1.765625 -1.484375 3.390625 -2.40625q1.640625 -0.921875 3.1875 -1.328125q1.5625 -0.421875 3.125 -0.421875q3.796875 0 6.359375 1.34375q2.578125 1.328125 4.171875 3.546875q1.59375 2.21875 2.265625 5.21875q0.6875 2.984375 0.6875 6.296875l0 24.8125z" fill-rule="nonzero"/></g></svg>